<!-- Created with Inkscape (http://www.inkscape.org/) -->
<svg xmlns:rdf="http://www.w3.org/1999/02/22-rdf-syntax-ns#" xmlns="http://www.w3.org/2000/svg" xml:space="preserve" height="150.28" width="249.45" version="1.1" xmlns:cc="http://creativecommons.org/ns#" xmlns:dc="http://purl.org/dc/elements/1.1/"><metadata><rdf:RDF><cc:Work rdf:about=""><dc:format>image/svg+xml</dc:format><dc:type rdf:resource="http://purl.org/dc/dcmitype/StillImage"/><dc:title/></cc:Work></rdf:RDF></metadata><path d="m0,150.28,249.45,0,0-150.28h-249.45v150.28z" fill-rule="nonzero" fill="#1fa12d"/><path d="m18.425,131.87,130.62,0,1.27-7.52-130.62,0-1.266,7.52" fill-rule="nonzero" fill="#0066ac"/><path d="m231.01,66.54c0-0.285-0.75-0.541-1.24-0.936-1.62-1.359-7.45-7.09-18.91-6.719-1.45,0.05-2.77,0.182-3.97,0.389,2.43-0.793,3.7-1.266,4.43-1.56,0.89-0.35,6.74-2.355,9.89-12.63,0.28-0.88,1.03-2.998,0.84-3.157-0.24-0.198-2.2,0.153-4.19,1.364s-8.68,2.268-9.49,2.397c-0.46,0.07-2.43-0.221-5.37,1.324,3.31-3.402,6.82-8.238,7.77-15.022,0.45-3.255,0.25-4.583,0.13-4.574-0.2,0.01-0.3,0.01-0.55,0.09-0.74,0.216-1.49,0.841-3.91,2.47-2.45,1.63-5.03,3.435-5.03,3.435s0.88-8.867,0.6-9.067c-0.26-0.2-5.3-0.15-13.02,8.447,0,0,0.88-7.367-0.57-10.147,0,0-0.4-2.012-0.72-3.062-0.15-0.525-0.56-1.075-0.63-1.038-0.12,0-0.77,0.175-1.87,1.438-1.7,1.95-9.61,4.337-10.93,14.579-1-4.134-3.1-9.667-8.3-12.467-2.93-2.875-4.23-3.725-4.38-3.65-0.14,0-0.13,1.338-0.53,4.213-0.5,3.231-0.95,4.251-0.95,4.251s-5.45-4.789-5.58-4.926c-0.25-0.263-3.58,10.259-2.6,15.51,0,0-1.73-1.335-4.87-2.948-3.56-1.828-9.55-2.142-9.51-1.862,0.13,0.472,5.06,10.212,7.16,13.633,0,0-13.43-2.308-13.2-1.469,0.13,0.277,0.4,0.805,0.94,3.046,0,0-5.27-0.113-5.21,0.322,0.12,0.487,4,6.965,4.3,7.319,0,0-4.08,0.788-4.94,0.835-0.59,0.02,2.73,9.163,11.79,11.443,1.29,0.323,2.52,0.561,3.72,0.735,1.03,0.1,2.28,0.22,3.37,0.322,5.4,0.215,8.93-1.17,8.32-3.167,0,0-0.18-0.74-5.7-2.759,0,0,0.15-0.66,0.52-0.75s6.12,2.017,5.72,1.681c-0.41-0.342-2.52-2.682-2.14-2.662,0.37,0.01,3.08,1.161,3.98,0.32,0.86-0.804,1.4-2.28,1.96-2.603,0.56-0.321-1.5-2.235,1.22-1.355,0,0,1.84-1.037,0.39-2.732-1.45-1.7-6.06-7.158,1.46-0.571,1.8,1.578,6.3-3.228,5.93-5.84,0,0,1.81,1.813,2.19,2.007,0.37,0.195,2.89,0.494,3.47-0.379,0.26-0.4-0.93-4.121-0.16-5.756,0,0,0.32-0.02,0.62,0.318,0.3,0.35,0.34,4.231,1.7,4.967,0,0,1.54-0.899,1.8-1.569,0.27-0.676-0.42,4.193,4.19,2.094,0,0,2.24-1.994,2.89-2.052,0.64-0.06-0.49,2.365,0.12,3.228,0.57,0.864,2.45,1.443,3.05,0.363,0.6-1.081,3.48-3.24,3.7-3.154,0.23,0.09-1.46,4.588-1.65,5.03-0.28,0.639-0.48,1.591-0.48,1.591s0.22,1.257,1.78,1.603c0,0,2.97-1.729,6.05-3.978-0.32,0.39-0.65,0.793-0.97,1.225,0,0-3.99,4.097-3.99,4.69,0,0.594,1.36,1.924,2.48,1.17,1.12-0.748,3.82-1.867,4.06-1.672,0.22,0.195,0.66,0.747,0.12,1.072-0.56,0.32-3.7,1.963-3.7,1.963s3.59,0.245,7.98-0.643c-4.75,1.928-6.4,4.86-6.36,5.139,0.15,0.941,7.52-0.971,7.72-0.506,1.06,2.405-2.34,0.92-3.82,1.17-1.49,0.245-5.32,0.331-1.79,3.347,0,0,0.65,0.05-1.09,1.075-1.75,1.028,3.86,1.634,4.54,2.38,0.66,0.749-5.58-0.08-5.45,1.804,0.12,1.878-1.07,0.694,3.07,5.111,0,0-2.49-0.578-2.77-0.227-0.3,0.352,5.43,5.104,5.4,6.456,0,0-1.17,0.809-1.67,0.1-0.5-0.71-3.96-4.542-4.52-4.655-0.43-0.09-1.23,0.113-1.6,0.856,0,0,1.51,3.528,1.04,3.628-0.48,0.1-2.85-1.571-2.85-1.571s-1.55,0.686-1.04,2.095c0.5,1.406,4.72,6.195,4.49,6.488,0,0-0.37,0.789-0.9,0.733-0.55-0.06-3.48-5.345-4.19-5.549-0.73-0.202,0.84,4.94,0.84,4.94s-2.64-2.775-3.34-3.355-0.81,0.614-0.81,0.614l0.77,5.867s-8.21-12.241-6.21,2.357c0,0-0.19,0.827-0.46,0.798-0.27-0.03-2.02-4.83-1.82-6.142,0.2-1.313-1.43,3.637-1.43,3.637s-2.58-10.225-7.92,0.258c0,0-0.36-3.961-1.18-4.639-0.82-0.679-1.47-0.916-1.7-0.922-0.18,0-1.25-0.04-2.23,1.787-3.76,4.874-6.16,11.14-6.85,16.57-0.12,3.76,0.31,10.55,0.13,12-0.13,0.86,0,0.95,0.2,1.23,0,0.1,1.45-1.07,1.88-1.37,0.67-0.44,7.53-9.66,7.95-11.97,0,0,3.67,16.07,4.9,17.79,0.28,0.37,0.49,0.78,0.68,0.49,0.36-0.57,0.91-2.07,1.32-2.19,0.53-0.16,2.08-0.35,2.89-2.64,0.81-2.3,2.28-4.53,2.96-10.48,0,0,7.77,9.91,8.78,10.83,0.4,0.37,2.51-3.14,3.44-8.79,0.93-5.64-1.07-13.23-2.34-13.49,0,0-0.53-0.83,0.95-0.3,0.84,0.3,4.07,5.92,11.54,10.18,1.25,0.72,3.92,0.73,3.93,0.68,0.6-1.67-5.25-16.996-5.25-16.996s0.14-0.175,1.32,0.309c1.18,0.483,12.36,7.717,19.13,4.325,1.38-0.685,1.47-0.833,1.47-0.833,0.77-3.336-5.2-9.651-8.87-12.522,0,0,9.63-0.39,11.12-2.944,0,0,1.77-0.64,2.68-1.904,0.17-0.224-1.03-2.421-2.42-3.386-3.64-2.524-4.43-3.474-4.43-3.474s1.02-1.229,2.49-1.689c1.46-0.46,6.21-3.39,4.95-4.833,0,0,1.53-1.328,1.46-1.675" fill-rule="nonzero" fill="#ffe400"/><path d="m54.789,69.446c-0.333-0.379-0.774-0.568-1.32-0.568-0.556,0-1.06,0.186-1.511,0.557-0.45,0.37-0.72,0.815-0.804,1.337-0.09,0.53,0.02,0.981,0.357,1.349,0.328,0.371,0.773,0.556,1.338,0.556,0.545,0,1.045-0.185,1.496-0.556,0.449-0.368,0.716-0.808,0.801-1.313,0.09-0.539-0.02-0.992-0.357-1.362m-5.553,0c-0.32-0.371-0.756-0.557-1.312-0.557-0.546,0-1.046,0.186-1.498,0.557-0.45,0.37-0.718,0.82-0.806,1.348-0.09,0.522,0.04,0.969,0.36,1.337,0.327,0.373,0.765,0.558,1.312,0.558,0.54,0,1.034-0.185,1.485-0.558,0.459-0.377,0.732-0.822,0.818-1.337,0.09-0.528-0.04-0.978-0.359-1.348m-0.07,16.719c-0.137,0.828-0.328,1.406-0.576,1.731-0.245,0.311-0.617,0.465-1.117,0.465-0.487,0-0.802-0.167-0.95-0.5-0.152-0.333-0.159-0.902-0.02-1.707l1.967-11.888h-5.224l-2.053,12.329c-0.392,2.365,0.09,4.082,1.45,5.154,1.07,0.847,2.5,1.269,4.288,1.269,1.579,0,2.983-0.384,4.213-1.147,0.913-0.572,1.605-1.215,2.075-1.921,0.471-0.678,0.796-1.56,0.977-2.651l2.169-13.033h-5.226l-1.978,11.899m60.139,8.441c-0.34-0.377-0.78-0.566-1.32-0.566-0.56,0-1.06,0.182-1.51,0.555-0.45,0.37-0.72,0.816-0.81,1.339-0.1,0.527,0,0.977,0.36,1.347,0.33,0.371,0.77,0.556,1.34,0.556,0.54,0,1.04-0.185,1.49-0.556,0.45-0.37,0.72-0.809,0.8-1.315,0.1-0.539,0-0.99-0.35-1.36m-5.56,0c-0.31-0.372-0.75-0.555-1.31-0.555-0.55,0-1.04,0.183-1.49,0.555-0.46,0.37-0.72,0.819-0.81,1.35-0.1,0.52,0,0.966,0.36,1.336,0.33,0.372,0.76,0.557,1.31,0.557,0.54,0,1.04-0.185,1.49-0.557,0.45-0.378,0.73-0.822,0.81-1.336,0.1-0.531,0-0.98-0.36-1.35m-0.1,16.724c-0.14,0.82-0.33,1.4-0.58,1.73-0.24,0.31-0.61,0.46-1.12,0.46-0.48,0-0.8-0.16-0.95-0.5-0.15-0.33-0.15-0.9,0-1.71l1.98-11.881h-5.229l-2.05,12.331c-0.394,2.36,0.09,4.08,1.448,5.15,1.071,0.84,2.501,1.27,4.291,1.27,1.57,0,2.98-0.39,4.21-1.15,0.91-0.57,1.6-1.21,2.07-1.92,0.47-0.68,0.8-1.56,0.98-2.65l2.17-13.031h-5.22l-1.98,11.901m-68.798-31.616c-0.09,0.501-0.329,0.89-0.739,1.167-0.412,0.279-0.93,0.416-1.555,0.416h-0.35l0.526-3.158c0.125-0.01,0.234-0.01,0.321-0.02h0.22c1.228,0,1.755,0.532,1.577,1.6m-2.877,5.456c0.678,0,1.185,0.159,1.519,0.479,0.335,0.32,0.456,0.763,0.362,1.328-0.1,0.567-0.365,1.018-0.807,1.354-0.447,0.338-0.993,0.504-1.645,0.504h-0.187c-0.07,0-0.161-0.01-0.262-0.02l0.607-3.641h0.413zm8.098-5.661c0.258-1.55-0.09-2.817-1.035-3.798-0.937-0.952-2.539-1.428-4.813-1.428h-6.078l-3.063,18.422h7.317c1.748,0,3.235-0.483,4.467-1.456,1.237-0.963,1.987-2.233,2.251-3.816,0.209-1.259,0.05-2.22-0.479-2.889s-1.46-1.098-2.799-1.289c2.438-0.191,3.848-1.439,4.231-3.746m20.899,13.196,0.781-4.701c0.125-0.725,0.213-1.569,0.278-2.53,0.06-0.964,0.1-2.093,0.1-3.39,0.06,0.574,0.16,1.175,0.274,1.809,0.112,0.632,0.246,1.311,0.397,2.033l1.47,6.779h5.034l3.065-18.422h-5.035l-0.69,4.141c-0.126,0.77-0.236,1.726-0.324,2.862-0.09,1.139-0.171,2.508-0.245,4.108l-0.269-1.624c-0.1-0.645-0.208-1.212-0.303-1.707-0.1-0.493-0.18-0.932-0.259-1.313l-1.506-6.49h-4.748l-3.063,18.423h5.036m20.286-9.013c-0.496,2.983-1.688,4.518-3.574,4.606l1.56-9.382h0.163c0.811,0,1.382,0.431,1.716,1.291,0.334,0.853,0.378,2.011,0.135,3.485m5.37-0.184c0.515-3.106-0.02-5.52-1.629-7.245-1.217-1.32-3.116-1.981-5.698-1.981h-4.51l-3.066,18.423h4.889c2.697,0,4.847-0.709,6.443-2.124,1.872-1.663,3.06-4.022,3.571-7.073m5.098,9.197,0.782-4.702c0.125-0.725,0.213-1.569,0.276-2.53,0.06-0.964,0.1-2.092,0.1-3.39,0.08,0.574,0.162,1.175,0.274,1.809,0.113,0.633,0.246,1.311,0.399,2.034l1.469,6.779h5.032l3.07-18.423h-5.037l-0.69,4.141c-0.128,0.77-0.236,1.727-0.326,2.863-0.09,1.139-0.169,2.507-0.243,4.107l-0.27-1.623c-0.113-0.645-0.208-1.213-0.304-1.708-0.1-0.492-0.18-0.931-0.257-1.312l-1.505-6.468h-4.747l-3.062,18.423h5.034m19.047-18.423-5.23,0-3.06,18.423,5.22,0,3.07-18.423m2.87,18.423c1.78,0,3.34-0.567,4.69-1.702,1.35-1.136,2.17-2.578,2.46-4.328,0.17-1.029,0.1-1.927-0.27-2.693-0.35-0.766-1.02-1.515-2-2.245l-0.73-0.562c-0.64-0.469-0.91-0.939-0.83-1.417,0.1-0.291,0.22-0.54,0.52-0.747,0.3-0.215,0.64-0.323,1.05-0.323,0.52,0,1.03,0.184,1.51,0.544,0.48,0.362,0.88,0.857,1.2,1.485l0.93-5.522c-1.17-0.608-2.37-0.913-3.61-0.913-1.4,0-2.65,0.384-3.77,1.151-0.4,0.268-0.77,0.579-1.1,0.928-0.34,0.35-0.64,0.736-0.92,1.157-0.57,0.907-0.93,1.773-1.06,2.604-0.1,0.483-0.1,0.944,0,1.383,0,0.436,0.15,0.86,0.34,1.268,0.18,0.415,0.44,0.813,0.78,1.202,0.33,0.387,0.75,0.777,1.25,1.17l0.76,0.608c0.54,0.453,0.77,0.917,0.69,1.393-0.1,0.331-0.24,0.606-0.56,0.824-0.32,0.221-0.71,0.328-1.16,0.328-1.19,0-2.19-0.668-3-2.005l-0.94,5.663c1.32,0.499,2.59,0.749,3.82,0.749m23.9-12.102c-0.27,1.577-0.88,2.364-1.85,2.364-1.03,0-1.4-0.781-1.15-2.339,0.27-1.652,0.92-2.477,1.93-2.477,0.98,0,1.34,0.816,1.07,2.452m4.05-4.516c-0.97-1.205-2.4-1.805-4.3-1.805-2,0-3.73,0.604-5.17,1.814-1.45,1.221-2.32,2.791-2.65,4.704-0.26,1.588,0,2.947,0.7,4.078,0.75,1.108,1.78,1.66,3.12,1.66,0.53,0,1.17-0.172,1.92-0.526-0.25,0.29-0.47,0.552-0.67,0.796-0.2,0.243-0.38,0.463-0.53,0.66l-3.97,5.237h5.61l2.3-3.164c2.71-3.71,4.24-6.614,4.59-8.709,0.32-1.959,0-3.542-0.95-4.745m10.81,7.495c-0.28,1.62-0.61,2.809-1.01,3.572-0.42,0.763-0.92,1.144-1.5,1.144-1.1,0-1.35-1.743-0.78-5.232,0.49-2.918,1.29-4.378,2.41-4.378,1.13,0,1.42,1.63,0.88,4.894m4.51-6.824c-0.92-1.65-2.45-2.476-4.59-2.476-2.11,0-3.92,0.815-5.43,2.442-1.52,1.623-2.49,3.825-2.95,6.613-0.5,2.95-0.27,5.247,0.7,6.89,0.97,1.652,2.56,2.477,4.75,2.477,2.03,0,3.78-0.816,5.26-2.452,1.47-1.645,2.45-3.859,2.91-6.639,0.49-2.917,0.26-5.202-0.65-6.855m-126.57,31.954c-0.496,2.99-1.687,4.52-3.573,4.61l1.56-9.38h0.163c0.809,0,1.383,0.43,1.715,1.29,0.337,0.85,0.38,2.01,0.135,3.48m5.372-0.18c0.515-3.1-0.03-5.52-1.629-7.25-1.218-1.315-3.118-1.975-5.699-1.975h-4.511l-3.063,18.425h4.888c2.696,0,4.844-0.71,6.441-2.13,1.874-1.66,3.063-4.02,3.573-7.07m8.686-9.225-5.226,0-3.064,18.425,5.226,0,3.064-18.425m9.049,18.425,0.733-4.41-4.487,0,0.431-2.59,4.023,0,0.732-4.41-4.022,0,0.435-2.61,4.486,0,0.734-4.405-9.713,0-3.065,18.425,9.713,0m18.417-6.78,1.933,0c-0.06,0.36-0.16,0.69-0.297,0.98-0.136,0.29-0.298,0.54-0.487,0.75-0.189,0.2-0.404,0.36-0.648,0.47-0.245,0.11-0.506,0.17-0.78,0.17-0.695,0-1.142-0.34-1.347-1.02s-0.181-1.77,0.06-3.28c0.588-3.54,1.602-5.31,3.038-5.31,0.41,0,0.722,0.17,0.937,0.51s0.312,0.8,0.29,1.38l5.357-1.77c-0.877-3.02-2.844-4.525-5.9-4.525-2.307,0-4.262,0.835-5.865,2.485-1.604,1.66-2.647,3.93-3.125,6.81-0.473,2.85-0.185,5.08,0.865,6.71,1.06,1.61,2.756,2.42,5.086,2.42,2.371,0,4.301-0.83,5.787-2.48,1.363-1.51,2.33-3.99,2.902-7.43l0.125-0.74h-7.291l-0.645,3.87m17.859-5.71c-0.113,0.68-0.405,1.23-0.878,1.67-0.475,0.44-1.013,0.66-1.615,0.66h-0.351l0.733-4.39h0.187c1.51,0,2.153,0.68,1.924,2.06m5.154,0.21c0.346-2.08-0.13-3.69-1.429-4.82-1.024-0.884-2.711-1.325-5.069-1.325h-5.35l-3.064,18.425h5.199l1.073-6.45,0.166-1.21c0.05,0.25,0.09,0.47,0.125,0.65,0.04,0.18,0.05,0.33,0.06,0.44l1.491,6.57h5.653l-2.613-7.66c2.139-0.85,3.393-2.39,3.764-4.62m20.504,12.28,0.78-4.71c0.12-0.72,0.21-1.56,0.28-2.52,0.1-0.97,0.1-2.1,0.1-3.39,0.1,0.57,0.16,1.17,0.27,1.8,0.11,0.64,0.24,1.31,0.4,2.04l1.47,6.78h5.03l3.07-18.425h-5.04l-0.69,4.145c-0.13,0.77-0.23,1.72-0.32,2.86-0.1,1.14-0.17,2.51-0.25,4.11l-0.26-1.63c-0.12-0.64-0.21-1.21-0.31-1.7-0.1-0.5-0.18-0.94-0.26-1.32l-1.5-6.465h-4.75l-3.06,18.425h5.03m20.48,0,0.72-4.41-4.48,0,0.43-2.59,4.03,0,0.71-4.41-4,0,0.43-2.61,4.48,0,0.74-4.405-9.71,0-3.06,18.425,9.71,0m7.2,0,0.77-4.71c0.13-0.72,0.22-1.56,0.28-2.52,0.12-0.97,0.12-2.1,0.12-3.39,0,0.57,0.17,1.17,0.28,1.8,0.12,0.64,0.25,1.31,0.4,2.04l1.46,6.78h5.04l3.06-18.425h-5.04l-0.68,4.145c-0.13,0.77-0.23,1.72-0.33,2.86-0.12,1.14-0.16,2.51-0.24,4.11l-0.27-1.63c-0.13-0.64-0.2-1.21-0.3-1.7-0.12-0.5-0.19-0.94-0.26-1.32l-1.5-6.465h-4.75l-3.07,18.425h5.04" fill-rule="nonzero" fill="#FFF"/></svg>
