<?xml version="1.0" encoding="utf-8"?>
<!-- Generator: Adobe Illustrator 15.1.0, SVG Export Plug-In  -->
<!DOCTYPE svg PUBLIC "-//W3C//DTD SVG 1.1//EN" "http://www.w3.org/Graphics/SVG/1.1/DTD/svg11.dtd" [
	<!ENTITY ns_flows "http://ns.adobe.com/Flows/1.0/">
]>
<svg version="1.1"
	 xmlns="http://www.w3.org/2000/svg" xmlns:xlink="http://www.w3.org/1999/xlink" xmlns:a="http://ns.adobe.com/AdobeSVGViewerExtensions/3.0/"
	 x="0px" y="0px" width="282px" height="117px" viewBox="-4.202 -2.706 282 117"
	 overflow="visible" enable-background="new -4.202 -2.706 282 117" xml:space="preserve">
<defs>
</defs>
<path fill="#FFFFFF" d="M135.083,52.658c-0.216-0.215-0.323-0.557-0.323-1.025V30.674c0-0.469,0.107-0.808,0.323-1.016
	c0.215-0.21,0.557-0.314,1.026-0.314h12.369c0.354,0,0.611,0.133,0.77,0.399c0.159,0.266,0.238,0.697,0.238,1.292v1.026
	c0,0.596-0.079,1.026-0.238,1.292c-0.158,0.266-0.415,0.399-0.77,0.399h-8.512v4.903h7.601c0.354,0,0.61,0.132,0.769,0.398
	c0.159,0.267,0.238,0.697,0.238,1.292v1.046c0,0.595-0.079,1.026-0.238,1.291c-0.158,0.267-0.415,0.4-0.769,0.4h-7.601v5.472h8.531
	c0.354,0,0.611,0.133,0.77,0.399c0.158,0.266,0.238,0.691,0.238,1.273v1.064c0,0.596-0.08,1.027-0.238,1.292
	c-0.158,0.266-0.416,0.399-0.77,0.399H136.11C135.641,52.981,135.299,52.874,135.083,52.658"/>
<path fill="#FFFFFF" d="M153.852,51.926c-0.812-0.893-1.217-2.276-1.217-4.151V36.317c0-0.355,0.164-0.621,0.494-0.799
	c0.329-0.176,0.842-0.265,1.539-0.265h0.931c0.697,0,1.21,0.089,1.539,0.265c0.329,0.178,0.494,0.444,0.494,0.799v10.697
	c0,0.697,0.158,1.223,0.476,1.578c0.316,0.354,0.836,0.531,1.558,0.531c0.62,0,1.161-0.199,1.625-0.598
	c0.462-0.399,0.819-0.851,1.073-1.358v-10.85c0-0.355,0.164-0.621,0.494-0.799c0.33-0.176,0.842-0.265,1.539-0.265h0.932
	c0.695,0,1.209,0.089,1.539,0.265c0.328,0.178,0.494,0.444,0.494,0.799v10.697c0,1.064,0.027,1.898,0.084,2.499
	c0.058,0.602,0.131,1.162,0.22,1.682c0.063,0.342,0.095,0.582,0.095,0.722c0,0.253-0.234,0.462-0.703,0.627
	c-0.469,0.164-1.004,0.285-1.605,0.361c-0.603,0.076-1.086,0.114-1.453,0.114c-0.406,0-0.694-0.162-0.865-0.485
	c-0.171-0.323-0.307-0.782-0.408-1.378l-0.095-0.475c-0.532,0.723-1.245,1.334-2.138,1.834c-0.894,0.5-1.854,0.751-2.879,0.751
	C155.917,53.267,154.661,52.82,153.852,51.926"/>
<path fill="#FFFFFF" d="M171.444,51.974V41.257c0-1.621-0.107-2.971-0.322-4.047c-0.064-0.342-0.096-0.583-0.096-0.722
	c0-0.253,0.236-0.459,0.712-0.618c0.476-0.158,1.015-0.275,1.616-0.352c0.602-0.075,1.086-0.113,1.453-0.113
	c0.393,0,0.668,0.146,0.826,0.437s0.301,0.716,0.428,1.273l0.113,0.494c0.432-0.785,0.929-1.409,1.492-1.871
	c0.563-0.463,1.289-0.694,2.176-0.694c0.734,0,1.242,0.187,1.521,0.56c0.278,0.374,0.418,0.795,0.418,1.264
	c0,0.253-0.045,0.611-0.133,1.074c-0.089,0.462-0.216,0.871-0.38,1.225c-0.165,0.355-0.35,0.532-0.551,0.532
	c-0.141,0-0.35-0.038-0.627-0.114c-0.381-0.101-0.705-0.152-0.971-0.152c-0.619,0-1.162,0.174-1.623,0.523
	c-0.464,0.348-0.814,0.738-1.056,1.168v10.85c0,0.709-0.685,1.064-2.052,1.064h-0.932C172.115,53.039,171.444,52.684,171.444,51.974
	"/>
<path fill="#FFFFFF" d="M185.17,50.91c-1.398-1.571-2.099-3.832-2.099-6.783c0-2.939,0.7-5.188,2.099-6.746
	c1.4-1.558,3.437-2.337,6.109-2.337c2.674,0,4.703,0.776,6.09,2.328c1.387,1.551,2.082,3.803,2.082,6.755
	c0,2.951-0.695,5.212-2.082,6.783s-3.416,2.356-6.09,2.356C188.607,53.266,186.571,52.481,185.17,50.91 M193.627,48.003
	c0.5-0.862,0.75-2.154,0.75-3.876c0-1.71-0.25-2.996-0.75-3.858c-0.502-0.861-1.283-1.292-2.348-1.292
	c-2.103,0-3.154,1.717-3.154,5.15c0,1.71,0.258,2.999,0.771,3.866c0.513,0.868,1.308,1.302,2.384,1.302
	C192.344,49.295,193.125,48.864,193.627,48.003"/>
<path fill="#FFFFFF" d="M203.317,59.679c-0.329-0.183-0.494-0.458-0.494-0.825V41.258c0-1.014-0.027-1.808-0.085-2.385
	c-0.058-0.576-0.13-1.13-0.219-1.662c-0.063-0.342-0.095-0.583-0.095-0.723c0-0.253,0.233-0.459,0.703-0.617
	c0.469-0.159,1.004-0.275,1.605-0.352c0.602-0.076,1.086-0.114,1.453-0.114c0.406,0,0.688,0.15,0.846,0.447
	c0.158,0.298,0.301,0.725,0.428,1.282l0.096,0.438c0.392-0.748,0.99-1.356,1.795-1.825c0.804-0.468,1.713-0.703,2.727-0.703
	c1.229,0,2.318,0.355,3.268,1.065c0.951,0.709,1.695,1.75,2.233,3.125s0.808,3.018,0.808,4.931c0,1.837-0.279,3.439-0.836,4.808
	c-0.558,1.367-1.369,2.425-2.433,3.173c-1.063,0.747-2.344,1.121-3.838,1.121c-1.28,0-2.438-0.355-3.478-1.064v6.651
	c0,0.367-0.162,0.643-0.484,0.825c-0.323,0.185-0.833,0.276-1.53,0.276h-0.931C204.16,59.955,203.646,59.863,203.317,59.679
	 M213.312,44.165c0-3.357-0.906-5.035-2.718-5.035c-1.063,0-1.994,0.664-2.793,1.994v7.525c0.785,0.431,1.578,0.646,2.375,0.646
	C212.267,49.295,213.312,47.585,213.312,44.165"/>
<path fill="#FFFFFF" d="M223.186,50.882c-1.456-1.59-2.184-3.797-2.184-6.622c0-3.179,0.728-5.51,2.184-6.992
	c1.457-1.483,3.466-2.224,6.025-2.224c1.696,0,3.088,0.387,4.17,1.159c1.084,0.774,1.875,1.812,2.375,3.117
	c0.5,1.305,0.75,2.78,0.75,4.427c0,0.19-0.11,0.444-0.332,0.76c-0.222,0.317-0.472,0.602-0.75,0.855
	c-0.279,0.254-0.494,0.38-0.646,0.38h-8.607c0.114,1.292,0.498,2.208,1.149,2.746s1.562,0.807,2.728,0.807
	c0.633,0,1.205-0.072,1.719-0.218s1.061-0.339,1.644-0.579c0.354-0.165,0.595-0.248,0.722-0.248c0.229,0,0.479,0.162,0.752,0.485
	c0.271,0.323,0.506,0.694,0.703,1.112c0.195,0.417,0.293,0.74,0.293,0.968c0,0.52-0.351,0.963-1.054,1.331
	c-0.703,0.367-1.532,0.646-2.489,0.835c-0.957,0.19-1.796,0.286-2.518,0.286C226.855,53.267,224.643,52.472,223.186,50.882
	 M231.643,42.417c0-1.039-0.203-1.872-0.608-2.499c-0.405-0.627-1.014-0.94-1.823-0.94c-1.673,0-2.687,1.146-3.041,3.439H231.643z"
	/>
<path fill="#FFFFFF" d="M239.808,51.908c-0.806-0.906-1.207-2.107-1.207-3.601c0-1.127,0.235-2.144,0.704-3.05
	c0.468-0.905,1.418-1.668,2.85-2.29c1.432-0.62,3.477-0.931,6.137-0.931v-1.12c0-0.659-0.209-1.147-0.627-1.464
	c-0.418-0.316-1.082-0.475-1.994-0.475c-0.76,0-1.414,0.079-1.957,0.238c-0.545,0.158-1.135,0.371-1.768,0.636
	c-0.33,0.153-0.531,0.228-0.607,0.228c-0.229,0-0.479-0.171-0.752-0.513c-0.272-0.342-0.51-0.734-0.713-1.178
	c-0.201-0.443-0.304-0.778-0.304-1.006c0-0.394,0.282-0.77,0.847-1.131c0.563-0.362,1.34-0.653,2.328-0.875
	c0.987-0.221,2.082-0.332,3.287-0.332c2.532,0,4.375,0.504,5.528,1.511c1.153,1.007,1.729,2.384,1.729,4.133v6.327
	c0,1.051,0.028,1.869,0.086,2.451c0.057,0.583,0.136,1.159,0.237,1.729c0.063,0.342,0.095,0.583,0.095,0.722
	c0,0.254-0.237,0.463-0.713,0.627c-0.475,0.165-1.017,0.285-1.625,0.361c-0.607,0.076-1.096,0.114-1.463,0.114
	c-0.392,0-0.674-0.168-0.845-0.504c-0.171-0.335-0.308-0.794-0.409-1.377c-0.013-0.076-0.025-0.151-0.037-0.228
	c-0.014-0.076-0.033-0.151-0.058-0.228c-0.127,0.241-0.396,0.564-0.808,0.969c-0.412,0.405-0.973,0.776-1.682,1.112
	c-0.71,0.335-1.533,0.503-2.47,0.503C241.875,53.266,240.612,52.814,239.808,51.908 M247.038,48.696
	c0.558-0.398,0.976-0.909,1.254-1.529v-1.863c-3.153,0-4.73,0.83-4.73,2.49c0,0.443,0.148,0.805,0.445,1.083
	c0.299,0.279,0.714,0.418,1.246,0.418C245.885,49.295,246.48,49.095,247.038,48.696"/>
<path fill="#FFFFFF" d="M257.348,51.974V41.257c0-1.621-0.108-2.971-0.324-4.047c-0.063-0.342-0.094-0.583-0.094-0.722
	c0-0.253,0.236-0.459,0.711-0.618c0.477-0.158,1.015-0.275,1.617-0.352c0.601-0.075,1.086-0.113,1.452-0.113
	c0.394,0,0.668,0.146,0.827,0.437c0.158,0.291,0.3,0.716,0.428,1.273l0.113,0.494c0.532-0.71,1.245-1.314,2.139-1.815
	c0.893-0.5,1.853-0.75,2.879-0.75c1.696,0,2.95,0.443,3.762,1.33c0.81,0.887,1.216,2.261,1.216,4.123v11.477
	c0,0.709-0.685,1.064-2.052,1.064h-0.932c-1.343,0-2.014-0.355-2.014-1.064V41.257c0-0.684-0.162-1.203-0.484-1.558
	c-0.324-0.354-0.846-0.532-1.568-0.532c-0.608,0-1.146,0.203-1.615,0.608c-0.469,0.406-0.823,0.855-1.064,1.349v10.85
	c0,0.709-0.684,1.064-2.052,1.064h-0.931C258.018,53.039,257.348,52.684,257.348,51.974"/>
<path fill="#FFFFFF" d="M136.651,79.371c-1.805-1.976-2.708-5.048-2.708-9.215c0-8.02,3.762-12.029,11.287-12.029
	c1.026,0,2.106,0.103,3.24,0.305c1.133,0.203,2.08,0.484,2.841,0.846c0.76,0.361,1.141,0.764,1.141,1.207
	c0,0.316-0.127,0.73-0.381,1.244c-0.254,0.513-0.552,0.966-0.893,1.357c-0.343,0.394-0.646,0.59-0.912,0.59
	c-0.076,0-0.26-0.062-0.552-0.189c-0.634-0.254-1.298-0.466-1.995-0.637c-0.697-0.172-1.559-0.256-2.584-0.256
	c-1.989,0-3.461,0.631-4.418,1.89c-0.956,1.261-1.434,3.164-1.434,5.71s0.48,4.466,1.443,5.758s2.406,1.938,4.332,1.938
	c0.975,0,1.855-0.082,2.641-0.246v-4.275h-2.982c-0.355,0-0.611-0.133-0.77-0.4c-0.158-0.265-0.237-0.695-0.237-1.291v-1.084
	c0-0.582,0.079-1.006,0.237-1.272c0.158-0.265,0.414-0.399,0.77-0.399h6.859c0.481,0,0.83,0.105,1.045,0.314
	c0.216,0.209,0.324,0.548,0.324,1.016v9.406c0,1.014-0.85,1.714-2.547,2.1c-1.697,0.387-3.478,0.58-5.34,0.58
	C141.259,82.336,138.456,81.348,136.651,79.371"/>
<path fill="#FFFFFF" d="M157.006,81.043V70.326c0-1.621-0.109-2.971-0.324-4.047c-0.063-0.342-0.095-0.582-0.095-0.722
	c0-0.254,0.237-0.459,0.712-0.618c0.477-0.158,1.014-0.275,1.616-0.352c0.601-0.076,1.086-0.114,1.453-0.114
	c0.394,0,0.668,0.146,0.827,0.438c0.158,0.291,0.3,0.715,0.427,1.272l0.114,0.494c0.431-0.786,0.928-1.409,1.492-1.872
	c0.562-0.462,1.289-0.693,2.176-0.693c0.734,0,1.24,0.187,1.52,0.561c0.278,0.374,0.418,0.795,0.418,1.264
	c0,0.254-0.045,0.611-0.133,1.073c-0.089,0.463-0.216,0.871-0.38,1.226c-0.165,0.355-0.349,0.532-0.551,0.532
	c-0.14,0-0.349-0.038-0.627-0.114c-0.38-0.102-0.704-0.151-0.97-0.151c-0.621,0-1.162,0.174-1.625,0.522
	c-0.463,0.348-0.813,0.737-1.055,1.168v10.85c0,0.71-0.684,1.064-2.052,1.064h-0.931C157.676,82.107,157.006,81.753,157.006,81.043"
	/>
<path fill="#FFFFFF" d="M170.858,79.95c-1.457-1.589-2.186-3.797-2.186-6.622c0-3.178,0.729-5.51,2.186-6.991
	c1.456-1.483,3.465-2.224,6.023-2.224c1.697,0,3.087,0.387,4.171,1.158c1.083,0.773,1.874,1.812,2.375,3.117
	c0.5,1.305,0.75,2.78,0.75,4.428c0,0.189-0.11,0.443-0.332,0.76s-0.472,0.602-0.751,0.855c-0.279,0.252-0.494,0.379-0.646,0.379
	h-8.606c0.114,1.293,0.496,2.207,1.149,2.746c0.651,0.539,1.561,0.808,2.727,0.808c0.633,0,1.206-0.072,1.719-0.218
	c0.514-0.146,1.061-0.34,1.645-0.58c0.354-0.164,0.595-0.248,0.722-0.248c0.228,0,0.478,0.162,0.751,0.484
	c0.271,0.324,0.506,0.694,0.703,1.112c0.195,0.418,0.294,0.741,0.294,0.97c0,0.52-0.351,0.963-1.054,1.33s-1.533,0.646-2.49,0.836
	c-0.956,0.189-1.795,0.285-2.518,0.285C174.526,82.336,172.314,81.541,170.858,79.95 M179.313,71.486
	c0-1.039-0.203-1.872-0.607-2.499c-0.406-0.628-1.014-0.941-1.824-0.941c-1.672,0-2.686,1.147-3.04,3.44H179.313z"/>
<path fill="#FFFFFF" d="M188.924,79.95c-1.457-1.589-2.186-3.797-2.186-6.622c0-3.178,0.729-5.51,2.186-6.991
	c1.457-1.483,3.465-2.224,6.023-2.224c1.697,0,3.087,0.387,4.171,1.158c1.083,0.773,1.874,1.812,2.375,3.117
	c0.5,1.305,0.75,2.78,0.75,4.428c0,0.189-0.11,0.443-0.332,0.76s-0.472,0.602-0.751,0.855c-0.279,0.252-0.494,0.379-0.646,0.379
	h-8.606c0.114,1.293,0.496,2.207,1.149,2.746c0.651,0.539,1.561,0.808,2.727,0.808c0.633,0,1.206-0.072,1.719-0.218
	c0.514-0.146,1.062-0.34,1.645-0.58c0.355-0.164,0.595-0.248,0.722-0.248c0.228,0,0.478,0.162,0.751,0.484
	c0.271,0.324,0.506,0.694,0.703,1.112c0.195,0.418,0.294,0.741,0.294,0.97c0,0.52-0.351,0.963-1.054,1.33s-1.533,0.646-2.49,0.836
	c-0.956,0.189-1.795,0.285-2.518,0.285C192.592,82.336,190.381,81.541,188.924,79.95 M197.379,71.486
	c0-1.039-0.203-1.872-0.607-2.499c-0.406-0.628-1.014-0.941-1.824-0.941c-1.672,0-2.686,1.147-3.04,3.44H197.379z"/>
<path fill="#FFFFFF" d="M205.334,81.043V70.326c0-1.621-0.108-2.971-0.323-4.047c-0.064-0.342-0.095-0.582-0.095-0.722
	c0-0.254,0.236-0.459,0.711-0.618c0.477-0.158,1.015-0.275,1.617-0.352c0.601-0.076,1.086-0.114,1.452-0.114
	c0.394,0,0.669,0.146,0.827,0.438c0.158,0.291,0.301,0.715,0.428,1.272l0.113,0.494c0.532-0.71,1.245-1.313,2.139-1.815
	c0.893-0.5,1.853-0.75,2.879-0.75c1.696,0,2.951,0.443,3.762,1.33c0.81,0.887,1.216,2.262,1.216,4.123v11.477
	c0,0.71-0.685,1.064-2.052,1.064h-0.932c-1.343,0-2.014-0.354-2.014-1.064V70.326c0-0.684-0.162-1.203-0.484-1.558
	c-0.324-0.354-0.846-0.532-1.568-0.532c-0.608,0-1.146,0.203-1.615,0.608c-0.468,0.405-0.823,0.854-1.064,1.349v10.85
	c0,0.71-0.684,1.064-2.052,1.064h-0.931C206.004,82.107,205.334,81.753,205.334,81.043"/>
<path fill="#FFFFFF" d="M225.967,82.051c-0.862-0.19-1.574-0.463-2.139-0.817s-0.845-0.76-0.845-1.216
	c0-0.279,0.101-0.627,0.304-1.045c0.202-0.418,0.446-0.782,0.731-1.094c0.284-0.31,0.534-0.465,0.751-0.465
	c0.113,0,0.361,0.09,0.74,0.267c0.443,0.202,0.867,0.366,1.273,0.493c0.405,0.127,0.868,0.189,1.387,0.189
	c0.646,0,1.135-0.119,1.463-0.359c0.33-0.241,0.494-0.596,0.494-1.064c0-0.355-0.098-0.65-0.293-0.884
	c-0.197-0.233-0.447-0.427-0.752-0.58c-0.304-0.151-0.734-0.335-1.291-0.55l-0.552-0.211c-0.722-0.277-1.356-0.594-1.899-0.949
	c-0.545-0.354-1.008-0.87-1.388-1.548c-0.38-0.679-0.569-1.536-0.569-2.575c0-1.152,0.25-2.145,0.75-2.973
	c0.5-0.83,1.213-1.465,2.138-1.901c0.924-0.437,2.014-0.655,3.269-0.655c0.721,0,1.475,0.07,2.26,0.209
	c0.787,0.141,1.447,0.354,1.986,0.646c0.538,0.292,0.809,0.659,0.809,1.103c0,0.254-0.08,0.596-0.238,1.026
	c-0.159,0.431-0.352,0.812-0.58,1.14c-0.229,0.329-0.443,0.494-0.646,0.494c-0.062,0-0.24-0.057-0.531-0.171
	c-0.393-0.165-0.77-0.295-1.131-0.39c-0.36-0.096-0.775-0.143-1.244-0.143c-1.191,0-1.786,0.393-1.786,1.178
	c0,0.355,0.11,0.66,0.333,0.912c0.221,0.254,0.497,0.463,0.826,0.627c0.328,0.166,0.791,0.361,1.387,0.59
	c0.684,0.278,1.109,0.455,1.273,0.531c0.887,0.444,1.599,1.03,2.138,1.758c0.538,0.729,0.808,1.701,0.808,2.918
	c0,1.152-0.26,2.166-0.779,3.039s-1.279,1.553-2.28,2.033c-1.001,0.481-2.191,0.723-3.572,0.723
	C227.696,82.336,226.828,82.24,225.967,82.051"/>
<path fill="#FFDE00" d="M68.883,1.66L68.883,1.66c0.001,0.005-0.616,0.907-1.564,2.416c-0.949,1.508-2.228,3.622-3.55,6.055
	c-1.321,2.432-2.684,5.181-3.801,7.958c-1.119,2.777-1.989,5.581-2.325,8.123c-0.335,2.55-0.09,4.612,0.465,6.272
	c0.556,1.66,1.422,2.917,2.331,3.854c0.908,0.939,1.86,1.558,2.584,1.943c0.725,0.384,1.222,0.534,1.225,0.534
	c0,0,0.574-0.479,1.455-1.36c0.881-0.879,2.068-2.162,3.293-3.766c1.226-1.604,2.49-3.53,3.524-5.701
	c1.033-2.171,1.837-4.586,2.142-7.167c0.305-2.587,0.096-5.079-0.388-7.36c-0.485-2.282-1.245-4.354-2.043-6.102
	c-0.798-1.748-1.634-3.174-2.271-4.161C69.323,2.211,68.886,1.66,68.883,1.66"/>
<path fill="#FFDE00" d="M25.415,58.313c-0.014,0.003-0.028,0.005-0.043,0.007c-0.014,0-0.028,0.002-0.042,0.006
	c-0.015,0.002-0.029,0.004-0.043,0.006c-0.015,0.003-0.029,0.004-0.043,0.006c-2.795,0.467-5.716,1.128-8.54,1.859
	c-2.823,0.733-5.549,1.535-7.95,2.281c-2.401,0.747-4.479,1.439-6.007,1.952c-1.527,0.513-2.506,0.845-2.708,0.873
	c-0.006,0.001-0.012,0.002-0.017,0.002H0.01c-0.003-0.001-0.007-0.001-0.008-0.002S0,65.301,0,65.3
	c-0.009,0.042,0.694,0.647,1.935,1.508c1.242,0.861,3.023,1.976,5.168,3.034c2.146,1.059,4.656,2.061,7.355,2.697
	c2.7,0.638,5.59,0.908,8.494,0.5c0.011-0.002,0.023-0.002,0.035-0.004c0.011-0.002,0.022-0.004,0.034-0.006
	c0.011-0.002,0.023-0.002,0.035-0.004c0.011-0.002,0.022-0.004,0.033-0.006c0.023-0.003,0.044-0.006,0.066-0.009
	c0.021-0.002,0.043-0.006,0.065-0.009c0.021-0.002,0.043-0.006,0.064-0.008c0.022-0.004,0.043-0.006,0.065-0.01
	c1.422-0.199,2.773-0.515,4.046-0.914c1.273-0.399,2.47-0.884,3.587-1.418c1.116-0.537,2.153-1.125,3.104-1.732
	c0.951-0.607,1.817-1.234,2.594-1.85c0.78-0.615,1.47-1.216,2.068-1.774c0.597-0.556,1.102-1.07,1.511-1.507
	c0.408-0.437,0.72-0.797,0.931-1.049c0.213-0.25,0.325-0.393,0.332-0.394c0.001,0,0.001,0,0.001,0.001
	c0.004-0.029-0.29-0.396-0.909-0.906c-0.619-0.509-1.566-1.16-2.869-1.757c-1.302-0.597-2.961-1.14-5.007-1.433
	C30.694,57.957,28.262,57.912,25.415,58.313"/>
<path fill="#FFDE00" d="M101.176,39.872c-0.038,0.005-0.075,0.011-0.114,0.016c-0.038,0.005-0.076,0.012-0.114,0.018
	s-0.076,0.011-0.113,0.018c-0.039,0.005-0.077,0.012-0.115,0.018c-2.868,0.42-5.436,1.32-7.673,2.435
	c-2.238,1.115-4.145,2.444-5.698,3.721c-1.553,1.277-2.749,2.502-3.563,3.408c-0.814,0.907-1.243,1.495-1.264,1.497h-0.001
	c-0.004,0.024,0.302,0.406,0.945,0.94c0.644,0.534,1.626,1.222,2.974,1.86c1.347,0.638,3.06,1.225,5.166,1.558
	c2.105,0.333,4.603,0.41,7.52,0.03c2.861-0.424,5.828-1.093,8.676-1.857c2.849-0.765,5.578-1.625,7.967-2.436
	c2.388-0.81,4.434-1.569,5.913-2.129c1.48-0.562,2.394-0.925,2.519-0.942c0.004-0.001,0.006-0.001,0.008-0.001h0.004
	c0.001,0,0.002,0.001,0.003,0.001v0.002c0.005-0.053-0.718-0.693-1.985-1.594c-1.266-0.901-3.076-2.065-5.242-3.173
	c-2.166-1.106-4.69-2.155-7.388-2.827C106.905,39.765,104.035,39.469,101.176,39.872"/>
<path fill="#FFDE00" d="M12.2,39.866c0.045,0.103,0.387,0.928,1.017,2.163c0.631,1.236,1.548,2.881,2.744,4.623
	c1.196,1.745,2.67,3.586,4.411,5.212c1.742,1.628,3.753,3.039,6.02,3.924c0.744,0.292,1.491,0.519,2.238,0.688
	c0.746,0.169,1.492,0.28,2.23,0.343c0.738,0.063,1.469,0.077,2.188,0.051c0.719-0.024,1.425-0.09,2.113-0.188
	c0.722-0.101,1.424-0.237,2.1-0.396c0.676-0.161,1.326-0.344,1.943-0.542c0.617-0.199,1.202-0.41,1.748-0.625
	c0.547-0.216,1.054-0.435,1.516-0.648c0.464-0.213,0.882-0.42,1.25-0.611c0.367-0.19,0.683-0.365,0.94-0.512
	c0.259-0.148,0.459-0.269,0.596-0.354c0.137-0.085,0.21-0.132,0.213-0.132c0.005-0.014,0.037-0.559-0.062-1.412
	c-0.098-0.852-0.329-2.012-0.85-3.255c-0.522-1.243-1.334-2.57-2.599-3.757c-1.263-1.187-2.978-2.233-5.304-2.918
	c-2.305-0.587-4.968-0.965-7.671-1.205c-2.701-0.24-5.441-0.345-7.903-0.385c-2.46-0.039-4.643-0.017-6.229-0.003
	C13.264,39.94,12.274,39.944,12.2,39.866 M12.194,39.854L12.194,39.854v0.003c0,0.001,0.001,0.001,0.001,0.001
	c0,0.002,0.001,0.004,0.002,0.005c0,0.001,0.001,0.002,0.002,0.002c-0.001-0.001-0.002-0.003-0.002-0.005
	c-0.001-0.001-0.001-0.002-0.002-0.003c0-0.001,0-0.002-0.001-0.002V39.854"/>
<path fill="#FFDE00" d="M37.297,17.997c0.001,0.002-0.168,0.859-0.352,2.261c-0.185,1.402-0.384,3.347-0.442,5.525
	c-0.058,2.178,0.026,4.589,0.407,6.919c0.382,2.33,1.06,4.579,2.194,6.435c0.912,1.502,2.054,2.606,3.296,3.412
	c1.242,0.805,2.585,1.313,3.9,1.62c1.314,0.308,2.599,0.416,3.728,0.422c1.128,0.008,2.1-0.086,2.784-0.183
	c0.167-0.024,0.317-0.047,0.449-0.07c0.13-0.023,0.243-0.043,0.334-0.061c0.091-0.019,0.163-0.035,0.21-0.046
	c0.047-0.011,0.072-0.018,0.072-0.02c0.002,0.003,0.352-0.585,0.803-1.581c0.45-0.994,1.002-2.396,1.407-4.019
	c0.406-1.623,0.664-3.467,0.531-5.346c-0.134-1.879-0.66-3.794-1.825-5.559c-1.171-1.722-2.852-3.181-4.714-4.401
	c-1.862-1.221-3.905-2.204-5.801-2.978c-1.896-0.772-3.645-1.335-4.917-1.714C38.088,18.233,37.291,18.037,37.297,17.997
	 M37.297,17.997L37.297,17.997"/>
<path fill="#FFDE00" d="M111.392,18.749c-1.316,0.187-2.749,0.442-4.248,0.788c-1.498,0.346-3.063,0.783-4.645,1.331
	c-1.581,0.548-3.18,1.208-4.746,2c-1.567,0.79-3.101,1.714-4.552,2.792c-2.64,1.88-4.733,3.882-6.388,5.828
	c-1.655,1.945-2.871,3.835-3.757,5.49c-0.887,1.654-1.443,3.074-1.777,4.08c-0.335,1.006-0.447,1.599-0.447,1.599
	c0,0.004,0.141,0.03,0.412,0.06c0.27,0.029,0.669,0.062,1.181,0.076c0.513,0.017,1.14,0.016,1.866-0.021
	c0.726-0.038,1.552-0.11,2.462-0.238c0.879-0.124,1.837-0.3,2.861-0.544c1.023-0.244,2.114-0.559,3.256-0.959
	c1.141-0.401,2.336-0.888,3.57-1.48c1.233-0.592,2.505-1.287,3.803-2.106c2.64-1.671,5.124-3.692,7.365-5.784
	c2.24-2.092,4.237-4.255,5.905-6.21c1.667-1.955,3.005-3.703,3.925-4.965c0.92-1.262,1.422-2.037,1.422-2.048
	c0.003-0.039-0.188-0.078-0.545-0.105c-0.357-0.025-0.88-0.04-1.54-0.03c-0.66,0.01-1.459,0.044-2.366,0.114
	C113.503,18.487,112.488,18.594,111.392,18.749"/>
<path fill="#FFDE00" d="M98.746,0c-0.061,0.009-0.997,0.631-2.471,1.727c-1.474,1.097-3.488,2.667-5.708,4.574
	c-2.219,1.906-4.645,4.147-6.943,6.585c-2.297,2.439-4.468,5.074-6.177,7.767c-1.721,2.68-2.791,5.114-3.426,7.258
	c-0.636,2.144-0.837,3.996-0.824,5.515c0.014,1.519,0.242,2.703,0.468,3.508c0.226,0.805,0.449,1.23,0.452,1.231
	c0.001-0.005,0.65-0.232,1.73-0.731s2.59-1.27,4.312-2.363c1.721-1.092,3.655-2.507,5.581-4.293
	c1.927-1.787,3.846-3.945,5.539-6.526c1.692-2.587,3.004-5.397,4.021-8.154c1.017-2.758,1.737-5.464,2.248-7.848
	c0.51-2.383,0.809-4.443,0.981-5.908c0.172-1.465,0.218-2.336,0.22-2.34V0.001C98.749,0,98.749,0,98.748,0H98.746L98.746,0"/>
<path fill="#FFDE00" d="M59.784,74.59L59.784,74.59c-0.001,0.004-0.586,0.473-1.486,1.332c-0.898,0.861-2.111,2.113-3.365,3.686
	c-1.255,1.571-2.551,3.463-3.617,5.6c-1.068,2.138-1.905,4.521-2.24,7.078c-0.338,2.563-0.131,5.074,0.371,7.4
	c0.5,2.326,1.297,4.466,2.135,6.287c0.839,1.82,1.721,3.32,2.394,4.365c0.674,1.047,1.139,1.638,1.142,1.639
	c0.006-0.001,0.653-0.873,1.64-2.346c0.987-1.471,2.313-3.543,3.678-5.938c1.364-2.395,2.765-5.113,3.902-7.883
	c1.136-2.768,2.008-5.588,2.312-8.184c0.309-2.598,0.035-4.711-0.55-6.42c-0.584-1.709-1.479-3.014-2.412-3.994
	c-0.934-0.981-1.907-1.637-2.647-2.049C60.3,74.754,59.79,74.588,59.784,74.59"/>
<path fill="#FFDE00" d="M43.063,70.537L43.063,70.537v0.002V70.537 M36.899,70.664c-0.877,0.123-1.83,0.295-2.847,0.531
	c-1.017,0.234-2.098,0.533-3.231,0.912c-1.134,0.379-2.319,0.836-3.546,1.387c-1.226,0.554-2.493,1.199-3.79,1.957
	c-2.694,1.582-5.268,3.461-7.613,5.389c-2.344,1.927-4.461,3.904-6.241,5.686c-1.779,1.778-3.222,3.361-4.221,4.5
	s-1.554,1.834-1.557,1.838c-0.007,0.047,0.265,0.105,0.768,0.155c0.503,0.05,1.237,0.093,2.152,0.103
	c0.917,0.012,2.016-0.01,3.249-0.084c1.234-0.074,2.601-0.201,4.056-0.404c1.253-0.175,2.571-0.406,3.921-0.709
	c1.351-0.303,2.735-0.676,4.121-1.135c1.388-0.457,2.776-1,4.137-1.645c1.36-0.642,2.693-1.384,3.966-2.24
	c2.72-1.752,4.881-3.648,6.594-5.51c1.712-1.861,2.975-3.686,3.899-5.293c0.924-1.605,1.508-2.994,1.862-3.98
	c0.355-0.988,0.48-1.577,0.485-1.584c-0.002-0.006-0.152-0.037-0.435-0.068c-0.282-0.031-0.698-0.062-1.231-0.078
	c-0.534-0.016-1.185-0.014-1.941,0.025C38.702,70.455,37.845,70.533,36.899,70.664"/>
<path fill="#FFDE00" d="M49.76,75c-0.003,0.002-0.66,0.219-1.758,0.695c-1.097,0.477-2.632,1.213-4.39,2.258
	c-1.758,1.045-3.738,2.396-5.723,4.102c-1.987,1.706-3.98,3.768-5.762,6.229c-1.785,2.465-3.196,5.147-4.308,7.787
	c-1.112,2.64-1.927,5.235-2.517,7.524c-0.592,2.289-0.959,4.271-1.179,5.685c-0.219,1.412-0.291,2.256-0.289,2.266v0.001
	c0,0.001,0.001,0.001,0.001,0.001c0.001,0,0.002,0,0.003,0.001c0.001,0,0.002-0.001,0.003-0.001c0.096-0.014,1.1-0.568,2.663-1.559
	c1.563-0.988,3.684-2.412,6.015-4.16s4.871-3.822,7.269-6.112c2.399-2.292,4.656-4.799,6.422-7.414
	c1.784-2.603,2.898-4.985,3.566-7.097c0.668-2.109,0.889-3.946,0.887-5.459c-0.001-1.512-0.226-2.697-0.452-3.506
	C49.986,75.431,49.762,75,49.76,75 M49.76,75L49.76,75"/>
<path fill="#FFDE00" d="M113.461,75.699c0,0.002,0.001,0.006,0.002,0.006c0.001,0.002,0.001,0.004,0.001,0.004
	c0.001,0.002,0.002,0.002,0.002,0.002c0,0.002,0,0.002,0.002,0.002c0-0.002,0-0.002-0.002-0.004c0,0,0-0.002-0.001-0.002
	c0-0.002-0.001-0.002-0.002-0.004C113.463,75.701,113.462,75.701,113.461,75.699 M88.836,57.01c-0.708,0.099-1.394,0.23-2.053,0.387
	c-0.661,0.156-1.293,0.335-1.894,0.527c-0.6,0.191-1.168,0.396-1.698,0.605c-0.53,0.209-1.021,0.422-1.469,0.629
	c-0.447,0.205-0.85,0.403-1.206,0.588c-0.354,0.183-0.66,0.351-0.912,0.494c-0.251,0.143-0.448,0.26-0.585,0.342
	c-0.136,0.082-0.212,0.129-0.222,0.131h-0.001c-0.002,0.019-0.026,0.578,0.09,1.455c0.117,0.877,0.373,2.074,0.933,3.371
	c0.559,1.297,1.422,2.691,2.751,3.967c1.328,1.275,3.121,2.432,5.543,3.246c2.401,0.723,5.165,1.248,7.963,1.635
	c2.8,0.387,5.636,0.636,8.183,0.804c2.547,0.168,4.805,0.256,6.448,0.322c1.641,0.065,2.668,0.108,2.754,0.187
	c-0.054-0.113-0.453-1.027-1.17-2.397c-0.716-1.369-1.748-3.19-3.067-5.121c-1.318-1.929-2.923-3.966-4.784-5.765
	c-1.859-1.797-3.975-3.356-6.317-4.332c-0.798-0.334-1.599-0.594-2.394-0.789c-0.796-0.195-1.587-0.325-2.37-0.401
	c-0.781-0.076-1.553-0.097-2.309-0.075C90.295,56.842,89.556,56.908,88.836,57.01"/>
<path fill="#FFDE00" d="M71.204,69.123c-0.11,0.015-0.207,0.029-0.292,0.044c-0.085,0.015-0.157,0.026-0.215,0.036
	c-0.06,0.012-0.104,0.021-0.134,0.027c-0.03,0.006-0.046,0.01-0.046,0.01c0.002,0.006-0.349,0.597-0.801,1.597
	c-0.45,0.999-1.001,2.407-1.398,4.047c-0.396,1.642-0.64,3.513-0.476,5.44c0.162,1.928,0.733,3.91,1.965,5.771
	c1.234,1.816,3.014,3.424,4.989,4.812c1.976,1.389,4.147,2.562,6.164,3.514s3.88,1.682,5.237,2.186
	c1.358,0.506,2.21,0.784,2.207,0.832c0.002,0,0.148-0.902,0.288-2.38c0.14-1.479,0.275-3.532,0.256-5.835
	c-0.02-2.303-0.193-4.855-0.669-7.334c-0.477-2.476-1.255-4.877-2.485-6.877c-1.039-1.693-2.322-2.93-3.699-3.824
	c-1.376-0.896-2.845-1.451-4.259-1.787c-1.415-0.334-2.774-0.445-3.929-0.453C72.752,68.941,71.802,69.039,71.204,69.123"/>
</svg>
