<?xml version="1.0" standalone="no"?>
<!DOCTYPE svg PUBLIC "-//W3C//DTD SVG 20010904//EN"
 "http://www.w3.org/TR/2001/REC-SVG-20010904/DTD/svg10.dtd">
<svg version="1.0" xmlns="http://www.w3.org/2000/svg"
 width="387.000000pt" height="387.000000pt" viewBox="0 0 387.000000 387.000000"
 preserveAspectRatio="xMidYMid meet">
<metadata>
Created by potrace 1.11, written by Peter Selinger 2001-2013
</metadata>
<g transform="translate(0.000000,387.000000) scale(0.100000,-0.100000)"
fill="#000000" stroke="none">
<path d="M536 3047 c-66 -226 -121 -420 -124 -429 -4 -16 5 -18 95 -18 l99 0
18 75 18 75 112 0 112 0 18 -75 18 -75 108 0 107 0 -53 183 c-29 100 -86 293
-125 430 l-72 247 -106 0 -106 0 -119 -413z m254 14 c17 -67 30 -129 30 -137
0 -11 -16 -14 -69 -14 l-69 0 37 139 c20 77 37 138 39 137 1 -2 16 -58 32
-125z"/>
<path d="M1250 3030 l0 -430 95 0 95 0 0 227 0 228 123 -225 122 -225 98 -3
97 -3 0 431 0 430 -95 0 -95 0 0 -227 0 -228 -114 225 -114 225 -106 3 -106 3
0 -431z"/>
<path d="M2060 3370 l0 -90 95 0 95 0 0 -340 0 -340 105 0 105 0 0 340 0 340
100 0 100 0 0 90 0 90 -300 0 -300 0 0 -90z"/>
<path d="M2880 3031 l0 -431 100 0 99 0 3 148 3 147 24 0 c20 0 31 -18 90
-147 l66 -148 108 0 c59 0 107 4 107 8 0 4 -33 82 -74 172 l-75 164 40 34 c51
44 78 97 85 170 14 131 -35 234 -134 280 -54 26 -66 27 -249 30 l-193 4 0
-431z m347 227 c30 -28 39 -94 19 -142 -18 -43 -68 -69 -124 -64 l-37 3 -3
104 c-1 58 0 111 3 119 8 21 113 6 142 -20z"/>
<path d="M1497 2360 c-192 -34 -291 -212 -273 -490 16 -252 112 -377 296 -387
64 -4 82 -1 120 19 25 13 55 38 67 57 l23 34 0 -52 0 -51 80 0 80 0 0 220 0
220 -150 0 -150 0 0 -80 0 -80 50 0 c58 0 62 -9 27 -61 -30 -44 -63 -61 -110
-55 -83 10 -120 90 -120 266 0 180 38 261 123 264 50 1 83 -30 101 -97 6 -23
13 -47 14 -54 3 -8 15 -9 42 -3 21 5 64 13 96 20 l58 12 -7 36 c-20 112 -89
216 -161 245 -50 19 -146 27 -206 17z"/>
<path d="M3060 2360 c-95 -16 -165 -62 -203 -134 -17 -32 -22 -58 -21 -116 0
-138 56 -195 274 -284 81 -33 120 -69 120 -111 0 -60 -67 -88 -139 -59 -23 9
-59 37 -82 62 l-40 46 -85 -42 -85 -42 18 -31 c36 -61 73 -96 135 -129 56 -31
73 -35 159 -38 163 -7 256 37 305 142 47 101 20 226 -62 294 -21 18 -88 54
-148 80 -60 26 -122 59 -138 74 -53 49 -25 118 50 118 47 0 93 -28 121 -74 25
-40 14 -42 128 21 l63 34 -17 27 c-32 52 -107 121 -152 140 -55 24 -140 33
-201 22z"/>
<path d="M537 1942 c-65 -224 -121 -417 -124 -429 -5 -23 -4 -23 94 -23 l99 0
18 75 18 76 111 -3 112 -3 19 -72 19 -73 107 0 108 0 -72 248 c-40 136 -97
329 -126 430 l-53 182 -106 0 -106 0 -118 -408z m252 11 c17 -67 31 -129 31
-137 0 -13 -13 -16 -65 -16 -44 0 -65 4 -65 12 0 14 64 268 67 265 1 -1 15
-57 32 -124z"/>
<path d="M2110 1390 l0 -101 88 3 87 3 3 98 3 97 -91 0 -90 0 0 -100z"/>
<path d="M2350 1390 l0 -101 88 3 87 3 3 98 3 97 -91 0 -90 0 0 -100z"/>
<path d="M655 1253 c-96 -35 -161 -106 -201 -218 -21 -62 -31 -289 -16 -362
43 -199 144 -297 307 -297 81 0 116 15 164 69 l31 36 0 -46 0 -45 80 0 80 0 0
220 0 220 -155 0 -155 0 0 -80 0 -80 50 0 c58 0 63 -13 30 -67 -33 -55 -116
-64 -163 -17 -38 38 -52 104 -52 249 0 114 3 136 23 176 51 105 153 90 189
-29 9 -31 18 -59 19 -61 2 -2 46 5 98 15 94 17 96 18 96 45 0 41 -43 153 -74
194 -15 19 -47 47 -72 61 -61 36 -202 44 -279 17z"/>
<path d="M1378 1253 l-108 -4 0 -429 0 -430 110 0 110 0 0 146 c0 142 0 145
21 142 17 -2 35 -33 84 -143 l62 -140 118 -3 c92 -2 116 0 112 10 -3 7 -38 84
-77 171 l-72 158 45 42 c63 59 81 113 75 226 -6 121 -35 172 -128 219 -72 36
-140 43 -352 35z m231 -198 c31 -15 41 -39 41 -97 0 -76 -34 -108 -115 -108
l-45 0 0 110 0 110 45 0 c26 0 59 -7 74 -15z"/>
<path d="M2012 908 l3 -343 31 -55 c60 -107 182 -155 341 -132 129 18 207 87
232 203 7 29 11 179 11 359 l0 310 -105 0 -105 0 0 -292 c0 -307 -6 -357 -43
-383 -25 -18 -70 -20 -99 -4 -43 23 -48 60 -48 379 l0 300 -111 0 -110 0 3
-342z"/>
<path d="M2800 820 l0 -430 100 0 100 0 0 223 0 222 121 -222 121 -223 104 0
104 0 0 430 0 430 -100 0 -100 0 0 -222 0 -222 -112 222 -113 222 -112 0 -113
0 0 -430z"/>
</g>
</svg>
