<svg xmlns="http://www.w3.org/2000/svg" width="49" height="49.218" viewBox="0 0 49 49.218"><g transform="translate(-1117.011 -426.011)"><rect width="29" height="29" transform="translate(1117.011 426.011)" fill="#fff"/><g transform="translate(1124.932 430.398)"><path d="M38.989,513H58.946a4.988,4.988,0,0,1,4.989,4.989v24.946a4.988,4.988,0,0,1-4.989,4.989H38.989A4.988,4.988,0,0,1,34,542.935V517.989A4.988,4.988,0,0,1,38.989,513Zm0,2.495a2.5,2.5,0,0,0-2.495,2.495v24.946a2.5,2.5,0,0,0,2.495,2.495H58.946a2.5,2.5,0,0,0,2.495-2.495V517.989a2.5,2.5,0,0,0-2.495-2.495Z" transform="translate(-34 -513)" fill="#0163b5" fill-rule="evenodd"/><path d="M36.5,524.747a1.248,1.248,0,0,1,1.247-1.247h7.484a1.247,1.247,0,1,1,0,2.494H37.747A1.248,1.248,0,0,1,36.5,524.747Z" transform="translate(-30.264 -497.307)" fill="#0163b5" fill-rule="evenodd"/><path d="M36.5,522.747a1.248,1.248,0,0,1,1.247-1.247H52.715a1.247,1.247,0,1,1,0,2.495H37.747A1.248,1.248,0,0,1,36.5,522.747Z" transform="translate(-30.264 -500.296)" fill="#0163b5" fill-rule="evenodd"/><path d="M36.5,520.747a1.248,1.248,0,0,1,1.247-1.247H52.715a1.247,1.247,0,0,1,0,2.495H37.747A1.248,1.248,0,0,1,36.5,520.747Z" transform="translate(-30.264 -503.285)" fill="#0163b5" fill-rule="evenodd"/><path d="M36.5,518.747a1.248,1.248,0,0,1,1.247-1.247H52.715a1.247,1.247,0,1,1,0,2.495H37.747A1.247,1.247,0,0,1,36.5,518.747Z" transform="translate(-30.264 -506.274)" fill="#0163b5" fill-rule="evenodd"/><path d="M36.5,516.747a1.248,1.248,0,0,1,1.247-1.247H52.715a1.247,1.247,0,1,1,0,2.495H37.747A1.248,1.248,0,0,1,36.5,516.747Z" transform="translate(-30.264 -509.264)" fill="#0163b5" fill-rule="evenodd"/></g><path d="M7.844,15.687a7.844,7.844,0,0,0,7.844-7.844l-.06-.96L15.618,6.8a7.844,7.844,0,1,0-7.774,8.89ZM5.249,4.555l2.595,2.6,2.594-2.6a.491.491,0,0,1,.694.694l-2.6,2.594,2.6,2.594a.491.491,0,0,1-.694.694l-2.594-2.6-2.595,2.6a.491.491,0,0,1-.693-.694L7.15,7.843,4.556,5.249a.491.491,0,0,1,.693-.694Z" transform="translate(1152.538 452.338) rotate(45)" fill="#015faa" stroke="#fff" stroke-width="1" fill-rule="evenodd"/><circle cx="10" cy="10" r="10" transform="translate(1146.011 455.011)" fill="none"/><circle cx="10" cy="10" r="10" transform="translate(1146.011 455.011)" fill="none"/></g></svg>